<svg width="24" height="24" viewBox="0 0 24 24" fill="none" xmlns="http://www.w3.org/2000/svg">
<path d="M10.4143 9.62679C10.0911 9.82986 9.81185 10.0957 9.59314 10.4085C9.37443 10.7214 9.22066 11.0749 9.14094 11.4482C9.06122 11.8215 9.05716 12.207 9.129 12.5819C9.20083 12.9568 9.34711 13.3135 9.55918 13.6309C9.77125 13.9483 10.0448 14.2199 10.3637 14.4298C10.6825 14.6396 11.0403 14.7834 11.4156 14.8526C11.791 14.9218 12.1765 14.915 12.5492 14.8327C12.922 14.7503 13.2744 14.5941 13.5857 14.3732C13.9089 14.1701 14.1882 13.9043 14.4069 13.5915C14.6256 13.2786 14.7793 12.9251 14.8591 12.5518C14.9388 12.1785 14.9428 11.793 14.871 11.4181C14.7992 11.0432 14.6529 10.6865 14.4408 10.3691C14.2287 10.0517 13.9552 9.78008 13.6363 9.57024C13.3175 9.3604 12.9597 9.21663 12.5844 9.14742C12.209 9.07821 11.8235 9.08498 11.4508 9.16731C11.078 9.24965 10.7256 9.40589 10.4143 9.62679ZM18.0375 5.9625C17.7589 5.68393 17.4214 5.46429 17.0518 5.31964C16.0821 4.93929 13.9661 4.95536 12.6 4.97143C12.3804 4.97143 12.1768 4.97679 12 4.97679C11.8232 4.97679 11.6143 4.97679 11.3893 4.97143C10.0232 4.95536 7.91786 4.93393 6.94821 5.31964C6.57857 5.46429 6.24643 5.68393 5.9625 5.9625C5.67857 6.24107 5.46429 6.57857 5.31964 6.94821C4.93929 7.91786 4.96071 10.0393 4.97143 11.4054C4.97143 11.625 4.97679 11.8286 4.97679 12C4.97679 12.1714 4.97679 12.375 4.97143 12.5946C4.96071 13.9607 4.93929 16.0821 5.31964 17.0518C5.46429 17.4214 5.68393 17.7536 5.9625 18.0375C6.24107 18.3214 6.57857 18.5357 6.94821 18.6804C7.91786 19.0607 10.0339 19.0446 11.4 19.0286C11.6196 19.0286 11.8232 19.0232 12 19.0232C12.1768 19.0232 12.3857 19.0232 12.6107 19.0286C13.9768 19.0446 16.0821 19.0661 17.0518 18.6804C17.4214 18.5357 17.7536 18.3161 18.0375 18.0375C18.3214 17.7589 18.5357 17.4214 18.6804 17.0518C19.0661 16.0875 19.0446 13.9768 19.0286 12.6054C19.0286 12.3804 19.0232 12.1714 19.0232 11.9946C19.0232 11.8179 19.0232 11.6143 19.0286 11.3839C19.0446 10.0179 19.0661 7.90714 18.6804 6.9375C18.5357 6.56786 18.3161 6.23571 18.0375 5.95179V5.9625ZM14.4429 8.34643C15.4125 8.99464 16.0821 10.0018 16.3125 11.1429C16.5429 12.2839 16.3018 13.4732 15.6536 14.4429C15.3321 14.925 14.9196 15.3321 14.4429 15.6536C13.9661 15.975 13.425 16.1946 12.8571 16.3071C11.7161 16.5321 10.5268 16.2964 9.55714 15.6482C8.5875 15 7.91786 13.9929 7.6875 12.8518C7.45714 11.7107 7.69821 10.5214 8.34107 9.55179C8.98393 8.58214 9.99643 7.9125 11.1375 7.68214C12.2786 7.45179 13.4679 7.69286 14.4375 8.33571H14.4429V8.34643ZM16.0071 8.27679C15.8411 8.16429 15.7071 8.00357 15.6268 7.81607C15.5464 7.62857 15.5304 7.425 15.5679 7.22143C15.6054 7.01786 15.7071 6.84107 15.8464 6.69643C15.9857 6.55179 16.1732 6.45536 16.3714 6.41786C16.5696 6.38036 16.7786 6.39643 16.9661 6.47679C17.1536 6.55714 17.3143 6.68571 17.4268 6.85179C17.5393 7.01786 17.5982 7.21607 17.5982 7.41964C17.5982 7.55357 17.5714 7.6875 17.5232 7.81071C17.475 7.93393 17.3946 8.04643 17.3036 8.14286C17.2125 8.23929 17.0946 8.31429 16.9714 8.36786C16.8482 8.42143 16.7143 8.44821 16.5804 8.44821C16.3768 8.44821 16.1786 8.38929 16.0125 8.27679H16.0071ZM24 3.42857C24 1.5375 22.4625 0 20.5714 0H3.42857C1.5375 0 0 1.5375 0 3.42857V20.5714C0 22.4625 1.5375 24 3.42857 24H20.5714C22.4625 24 24 22.4625 24 20.5714V3.42857ZM19.125 19.125C18.1232 20.1268 16.9071 20.4429 15.5357 20.5125C14.1214 20.5929 9.87857 20.5929 8.46429 20.5125C7.09286 20.4429 5.87679 20.1268 4.875 19.125C3.87321 18.1232 3.55714 16.9071 3.49286 15.5357C3.4125 14.1214 3.4125 9.87857 3.49286 8.46429C3.5625 7.09286 3.87321 5.87679 4.875 4.875C5.87679 3.87321 7.09821 3.55714 8.46429 3.49286C9.87857 3.4125 14.1214 3.4125 15.5357 3.49286C16.9071 3.5625 18.1232 3.87321 19.125 4.875C20.1268 5.87679 20.4429 7.09286 20.5071 8.46429C20.5875 9.87321 20.5875 14.1107 20.5071 15.5304C20.4375 16.9018 20.1268 18.1179 19.125 19.1196V19.125Z" fill="#00D7B5"/>
</svg>
